#!OML:ASF E:\emotionWalksFemale\Project 1\Capture day 1\Session 1\Female1.ASF
:FULLY-SPECIFIED
:DEGREES
532
root 8.96119 15.4539 -14.0339 -181.355 -2.27478 -182.157
lowerback 6.11595 0.581345 -1.07631
upperback -3.70649 0.646159 0.342985
thorax -7.33325 0.356756 0.887086
lowerneck -7.3974 -2.85753 -6.41067
upperneck 20.4724 -4.96621 4.32385
head 7.77461 -2.89359 1.99488
rclavicle -9.29318e-015 1.15295e-014
rhumerus -43.7315 -3.68068 -78.1192
rradius 31.45
rwrist 19.2499
rhand 0.352512 -53.3451
rfingers 7.12502
rthumb 25.928 -81.5969
lclavicle -9.29318e-015 1.15295e-014
lhumerus -38.0027 1.00364 83.9367
lradius 35.7355
lwrist -15.0001
lhand -4.70108 -33.6489
lfingers 7.12502
lthumb 21.0806 -4.77481
rfemur -25.9885 0.0803394 21.8471
rtibia 53.3306
rfoot -16.6873 -21.5974
rtoes 6.89163
lfemur 1.102 -17.9859 -33.2289
ltibia 20.1142
lfoot -18.7595 18.403
ltoes -14.5895
533
root 8.95195 15.4492 -14.149 -181.119 -2.6059 -182.872
lowerback 6.03897 0.51852 -1.5345
upperback -3.72755 0.501494 0.0925013
thorax -7.31039 0.300713 0.900161
lowerneck -7.566 -2.95868 -6.33586
upperneck 20.4463 -5.07433 4.24706
head 7.7995 -2.9366 1.94446
rclavicle -1.73937e-015 4.37326e-015
rhumerus -44.0137 -3.95271 -78.0094
rradius 31.431
rwrist 19.439
rhand -0.105819 -53.0863
rfingers 7.12502
rthumb 25.489 -81.4016
lclavicle -1.73937e-015 4.37326e-015
lhumerus -37.6055 0.685429 84.358
lradius 35.9765
lwrist -14.6916
lhand -5.26391 -34.133
lfingers 7.12502
lthumb 20.5398 -5.19958
rfemur -26.5685 0.401293 20.7675
rtibia 51.1212
rfoot -16.9992 -21.72
rtoes 8.53145
lfemur 1.7402 -17.9104 -34.0967
ltibia 19.5016
lfoot -18.6172 18.1415
ltoes -15.2415
534
root 8.95452 15.4458 -14.2726 -180.97 -2.86419 -183.099
lowerback 5.86427 0.45191 -1.74203
upperback -3.70205 0.391905 0.0333719
thorax -7.18044 0.254036 0.969143
lowerneck -7.75354 -3.03925 -6.27914
upperneck 20.4855 -5.15616 4.15466
head 7.84783 -2.97257 1.89348
rclavicle -8.34896e-015 -7.95139e-015
rhumerus -44.207 -4.22401 -77.8937
rradius 31.3626
rwrist 19.6569
rhand -0.288871 -53.0607
rfingers 7.12502
rthumb 25.3137 -81.4009
lclavicle -8.34896e-015 -7.95139e-015
lhumerus -37.2737 0.422383 84.7486
lradius 36.2888
lwrist -14.6061
lhand -5.88277 -34.7418
lfingers 7.12502
lthumb 19.945 -5.74535
rfemur -26.8767 1.04776 20.2978
rtibia 48.6817
rfoot -16.9566 -22.3385
rtoes 7.65995
lfemur 2.3969 -17.8546 -34.4228
ltibia 19.0284
lfoot -18.6223 17.9426
ltoes -15.9363
535
root 8.95271 15.4438 -14.38 -180.803 -3.23352 -183.092
lowerback 6.03431 0.352552 -1.56755
upperback -3.80569 0.265356 0.00187616
thorax -7.3843 0.183205 0.852825
lowerneck -7.62788 -3.10732 -6.22584
upperneck 20.2496 -5.20322 3.99969
head 7.74496 -2.9968 1.83278
rclavicle -7.45443e-016 -5.56597e-015
rhumerus -44.334 -4.55773 -77.7344
rradius 31.0961
rwrist 19.9954
rhand -0.0742745 -52.9914
rfingers 7.12502
rthumb 25.5192 -81.3023
lclavicle -7.45443e-016 -5.56597e-015
lhumerus -37.1192 0.0397567 85.1685
lradius 36.7075
lwrist -14.257
lhand -6.36886 -35.1797
lfingers 7.12502
lthumb 19.4777 -6.13532
rfemur -27.2104 1.61623 20.0214
rtibia 46.2143
rfoot -16.7082 -22.9585
rtoes 6.28291
lfemur 2.98016 -17.8775 -34.4719
ltibia 18.5057
lfoot -18.4601 17.6781
ltoes -16.3082
536
root 8.98197 15.4462 -14.5088 -180.862 -3.32975 -182.57
lowerback 6.13978 0.325989 -1.47742
upperback -3.84772 0.252288 0.237319
thorax -7.49085 0.180033 1.05064
lowerneck -7.33967 -3.11698 -6.3681
upperneck 20.0346 -5.27479 4.34103
head 7.63803 -3.01489 1.96813
rclavicle -2.88238e-015 1.98785e-015
rhumerus -44.6522 -4.72611 -77.6812
rradius 31.0153
rwrist 20.2016
rhand 0.416123 -53.1539
rfingers 7.12502
rthumb 25.9889 -81.3968
lclavicle -2.88238e-015 1.98785e-015
lhumerus -37.0656 -0.226328 85.54
lradius 37.1209
lwrist -13.753
lhand -6.61856 -35.4149
lfingers 7.12502
lthumb 19.2376 -6.34641
rfemur -27.2558 3.14102 20.3751
rtibia 43.6252
rfoot -16.8124 -24.1558
rtoes 7.73575
lfemur 3.74066 -17.7445 -33.8722
ltibia 17.9852
lfoot -18.3744 17.498
ltoes -16.1456
537
root 9.00165 15.4414 -14.6385 -180.94 -3.52173 -182.337
lowerback 6.23901 0.255686 -1.47983
upperback -3.8703 0.16331 0.340065
thorax -7.57053 0.140294 1.17109
lowerneck -7.05661 -3.06429 -6.44603
upperneck 19.8271 -5.23332 4.52222
head 7.52265 -2.98816 2.05038
rclavicle 3.57812e-015 -1.74931e-014
rhumerus -44.9872 -4.87299 -77.6649
rradius 31.0226
rwrist 20.455
rhand 0.740961 -53.3189
rfingers 7.12502
rthumb 26.2999 -81.5157
lclavicle 3.57812e-015 -1.74931e-014
lhumerus -37.0744 -0.393848 85.8376
lradius 37.5725
lwrist -13.3583
lhand -6.82225 -35.3972
lfingers 7.12502
lthumb 19.0418 -6.3093
rfemur -27.1206 4.48103 20.2931
rtibia 40.9611
rfoot -17.207 -25.3903
rtoes 9.66344
lfemur 4.54217 -17.6492 -33.6772
ltibia 17.5954
lfoot -18.3206 17.3501
ltoes -16.1528
538
root 8.98291 15.4311 -14.7488 -180.71 -4.07735 -183.044
lowerback 6.30582 0.112003 -1.65223
upperback -3.94313 -0.0743041 0.0139614
thorax -7.68039 0.022967 0.955912
lowerneck -7.06932 -3.03177 -6.72773
upperneck 19.7635 -5.19961 4.84743
head 7.51728 -2.96078 2.20761
rclavicle -5.46658e-016 3.18055e-015
rhumerus -45.1146 -5.30834 -77.477
rradius 30.8348
rwrist 20.9842
rhand 0.428159 -52.9411
rfingers 7.12502
rthumb 26.0004 -81.1823
lclavicle -5.46658e-016 3.18055e-015
lhumerus -36.9762 -0.696279 86.1826
lradius 37.9711
lwrist -13.1668
lhand -7.53221 -35.6833
lfingers 7.12502
lthumb 18.3589 -6.52962
rfemur -27.1955 4.79767 19.0015
rtibia 38.4077
rfoot -17.4433 -26.0261
rtoes 10.2652
lfemur 5.16609 -17.6786 -34.568
ltibia 17.1506
lfoot -18.1705 17.075
ltoes -17.2741
539
root 9.01248 15.4252 -14.8959 -180.908 -4.20193 -182.707
lowerback 6.09921 0.124177 -1.70653
upperback -3.74483 -0.0379433 0.172018
thorax -7.34898 0.0475353 1.14663
lowerneck -7.6187 -3.03512 -7.63674
upperneck 20.0687 -5.22495 5.74841
head 7.76423 -2.95192 2.64614
rclavicle 3.8266e-015 -7.55382e-015
rhumerus -45.2129 -5.6538 -77.3688
rradius 30.7964
rwrist 21.0935
rhand 0.0292384 -52.8577
rfingers 7.12502
rthumb 25.6184 -81.1545
lclavicle 3.8266e-015 -7.55382e-015
lhumerus -36.6891 -1.15988 86.6164
lradius 38.3672
lwrist -12.6465
lhand -7.80444 -35.8312
lfingers 7.12502
lthumb 18.097 -6.65309
rfemur -26.785 6.65993 18.958
rtibia 35.8202
rfoot -18.1386 -27.53
rtoes 11.3374
lfemur 6.24384 -17.4882 -34.2341
ltibia 16.5481
lfoot -18.1873 16.9624
ltoes -17.5431
540
root 9.00977 15.4142 -15.0151 -180.79 -4.46228 -182.791
lowerback 6.08831 0.0324739 -1.56053
upperback -3.76031 -0.154145 0.0831888
thorax -7.35533 -0.019571 0.985814
lowerneck -7.13997 -3.20248 -6.67522
upperneck 19.4845 -5.4134 4.95984
head 7.45399 -3.03246 2.21642
rclavicle -8.94531e-016 -3.18055e-015
rhumerus -45.3213 -5.51459 -77.5626
rradius 30.8317
rwrist 20.7562
rhand -0.146758 -53.1276
rfingers 7.12502
rthumb 25.4498 -81.4485
lclavicle -8.94531e-016 -3.18055e-015
lhumerus -36.4876 -1.47674 86.999
lradius 39.0829
lwrist -11.2514
lhand -6.19534 -34.8623
lfingers 7.12502
lthumb 19.6446 -5.83488
rfemur -26.8195 7.73523 18.274
rtibia 33.399
rfoot -18.4598 -28.5542
rtoes 10.5216
lfemur 7.07354 -17.4151 -34.3944
ltibia 15.743
lfoot -18.0051 16.8043
ltoes -17.1005
541
root 9.01902 15.4098 -15.1462 -180.748 -4.63876 -182.7
lowerback 5.98861 -0.048652 -1.51537
upperback -3.76902 -0.255743 0.118006
thorax -7.30373 -0.0715798 1.00909
lowerneck -7.01541 -3.38509 -7.4088
upperneck 19.3758 -5.69487 5.58928
head 7.45242 -3.16833 2.5213
rclavicle -3.37934e-015 6.75868e-015
rhumerus -45.4621 -5.35158 -77.6856
rradius 30.8048
rwrist 20.7468
rhand -0.0425365 -52.9659
rfingers 7.12502
rthumb 25.5496 -81.2725
lclavicle -3.37934e-015 6.75868e-015
lhumerus -36.37 -1.5872 87.3045
lradius 39.1468
lwrist -11.0723
lhand -6.72756 -35.3986
lfingers 7.12502
lthumb 19.1328 -6.31966
rfemur -26.6825 9.48384 17.6908
rtibia 30.8798
rfoot -18.7886 -30.1648
rtoes 10.0844
lfemur 7.84712 -17.3313 -34.3494
ltibia 15.2257
lfoot -18.1294 16.6836
ltoes -16.9477
542
root 9.03157 15.4056 -15.2771 -180.732 -4.94039 -182.786
lowerback 5.91268 -0.123284 -1.68413
upperback -3.74218 -0.369775 0.10729
thorax -7.22728 -0.120142 1.10585
lowerneck -7.06722 -3.51671 -7.68089
upperneck 19.3793 -5.88653 5.84145
head 7.49191 -3.25647 2.63052
rclavicle 3.52843e-015 3.97569e-015
rhumerus -45.6273 -5.46079 -77.6378
rradius 30.8284
rwrist 20.777
rhand 0.306886 -52.9133
rfingers 7.12502
rthumb 25.8843 -81.1715
lclavicle 3.52843e-015 3.97569e-015
lhumerus -36.1909 -1.9602 87.7599
lradius 39.5136
lwrist -10.2786
lhand -6.62237 -34.9013
lfingers 7.12502
lthumb 19.234 -5.83239
rfemur -26.5257 11.6127 16.7623
rtibia 28.6479
rfoot -19.8572 -32.0193
rtoes 11.6192
lfemur 8.72161 -17.214 -34.4708
ltibia 14.6188
lfoot -18.0606 16.5013
ltoes -18.1415
543
root 9.04266 15.3965 -15.4 -180.611 -5.26491 -182.902
lowerback 5.90256 -0.207024 -1.8362
upperback -3.76289 -0.499647 0.0694003
thorax -7.23902 -0.177748 1.16724
lowerneck -6.91911 -3.5903 -7.65581
upperneck 19.0979 -5.95724 5.80125
head 7.37722 -3.28444 2.61016
rclavicle 5.06901e-015 -1.11319e-014
rhumerus -45.7385 -5.59129 -77.6411
rradius 30.9317
rwrist 20.5947
rhand 0.855837 -53.4249
rfingers 7.12502
rthumb 26.4099 -81.6053
lclavicle 5.06901e-015 -1.11319e-014
lhumerus -36.0356 -2.13671 88.0797
lradius 39.7754
lwrist -9.95801
lhand -6.68054 -34.9552
lfingers 7.12502
lthumb 19.178 -5.88082
rfemur -26.5494 13.8991 15.6558
rtibia 26.6419
rfoot -21.9072 -33.7072
rtoes 15.4011
lfemur 9.46314 -17.1202 -34.5898
ltibia 13.9811
lfoot -17.7445 16.3431
ltoes -19.5872
544
root 9.05219 15.3849 -15.5225 -180.429 -5.52384 -183.073
lowerback 5.90436 -0.272697 -2.02604
upperback -3.80145 -0.610396 0.0289974
thorax -7.27678 -0.224087 1.24516
lowerneck -6.88892 -3.62687 -7.54981
upperneck 18.8359 -5.95308 5.66616
head 7.27975 -3.27368 2.55049
rclavicle -2.48481e-015 -6.36111e-015
rhumerus -45.7287 -5.66308 -77.6053
rradius 30.9326
rwrist 20.5676
rhand 1.40731 -53.7213
rfingers 7.12502
rthumb 26.9376 -81.8213
lclavicle -2.48481e-015 -6.36111e-015
lhumerus -35.8823 -2.35617 88.4374
lradius 40.0022
lwrist -9.67641
lhand -7.0078 -35.2687
lfingers 7.12502
lthumb 18.8633 -6.16338
rfemur -26.7461 16.4228 14.3501
rtibia 24.9029
rfoot -24.8134 -35.3019
rtoes 20.3697
lfemur 10.0696 -16.9431 -34.7298
ltibia 13.448
lfoot -17.4113 16.143
ltoes -20.2077
545
root 9.0644 15.3752 -15.651 -180.304 -5.70585 -183.2
lowerback 5.83946 -0.31448 -2.23228
upperback -3.84332 -0.68804 0.0154889
thorax -7.27977 -0.253237 1.35584
lowerneck -6.9891 -3.68933 -7.48686
upperneck 18.792 -6.00447 5.5592
head 7.28253 -3.29522 2.49871
rclavicle 1.05356e-014 -1.59028e-015
rhumerus -45.8355 -5.56076 -77.6169
rradius 30.8865
rwrist 20.4097
rhand 1.40173 -53.5463
rfingers 7.12502
rthumb 26.9323 -81.6472
lclavicle 1.05356e-014 -1.59028e-015
lhumerus -35.7961 -2.75555 88.8481
lradius 40.2599
lwrist -9.17226
lhand -7.09502 -35.3962
lfingers 7.12502
lthumb 18.7794 -6.28271
rfemur -26.963 19.4047 12.9423
rtibia 23.4127
rfoot -28.4602 -36.8915
rtoes 25.8175
lfemur 10.6391 -16.6815 -34.811
ltibia 13.1135
lfoot -17.3856 15.8779
ltoes -19.4633
